<svg xmlns="http://www.w3.org/2000/svg" xmlns:xlink="http://www.w3.org/1999/xlink" width="500" zoomAndPan="magnify" viewBox="0 0 375 374.999991" height="500" preserveAspectRatio="xMidYMid meet" version="1.0"><defs><clipPath id="5cc355c5c9"><path d="M 266 240 L 337.5 240 L 337.5 337 L 266 337 Z M 266 240 " clip-rule="nonzero"/></clipPath><clipPath id="30409db271"><path d="M 37.5 147 L 260 147 L 260 337 L 37.5 337 Z M 37.5 147 " clip-rule="nonzero"/></clipPath></defs><path fill="#0984e6" d="M 240.074219 310.089844 C 237.554688 310.089844 235.527344 312.125 235.527344 314.636719 C 235.527344 317.144531 237.554688 319.179688 240.074219 319.179688 L 252.574219 319.179688 C 255.074219 319.179688 257.117188 317.144531 257.117188 314.636719 C 257.117188 312.125 255.074219 310.089844 252.574219 310.089844 Z M 240.074219 310.089844 " fill-opacity="1" fill-rule="nonzero"/><path fill="#0984e6" d="M 204.507812 326.945312 C 199.5 326.945312 195.417969 322.871094 195.417969 317.851562 L 195.417969 205.953125 C 195.417969 200.933594 199.5 196.863281 204.507812 196.863281 L 288.117188 196.863281 C 293.136719 196.863281 297.210938 200.933594 297.210938 205.953125 L 297.210938 230.972656 L 306.300781 230.972656 L 306.300781 205.953125 C 306.300781 195.925781 298.15625 187.773438 288.117188 187.773438 L 204.507812 187.773438 C 194.480469 187.773438 186.328125 195.925781 186.328125 205.953125 L 186.328125 317.851562 C 186.328125 327.878906 194.480469 336.035156 204.507812 336.035156 L 261.589844 336.035156 C 259.582031 333.378906 258.082031 330.324219 257.398438 326.945312 Z M 204.507812 326.945312 " fill-opacity="1" fill-rule="nonzero"/><g clip-path="url(#5cc355c5c9)"><path fill="#0984e6" d="M 323.863281 240.0625 L 279.671875 240.0625 C 272.144531 240.0625 266.035156 246.179688 266.035156 253.699219 L 266.035156 322.398438 C 266.035156 329.917969 272.144531 336.035156 279.671875 336.035156 L 323.863281 336.035156 C 331.371094 336.035156 337.5 329.917969 337.5 322.398438 L 337.5 253.699219 C 337.5 246.179688 331.371094 240.0625 323.863281 240.0625 Z M 328.410156 322.398438 C 328.410156 324.898438 326.363281 326.945312 323.863281 326.945312 L 279.671875 326.945312 C 277.164062 326.945312 275.128906 324.898438 275.128906 322.398438 L 275.128906 321.617188 L 328.410156 321.617188 Z M 328.410156 312.527344 L 275.128906 312.527344 L 275.128906 253.699219 C 275.128906 251.199219 277.164062 249.152344 279.671875 249.152344 L 323.863281 249.152344 C 326.363281 249.152344 328.410156 251.199219 328.410156 253.699219 Z M 328.410156 312.527344 " fill-opacity="1" fill-rule="nonzero"/></g><g clip-path="url(#30409db271)"><path fill="#0984e6" d="M 177.238281 310.089844 L 55.519531 310.089844 C 50.601562 310.089844 46.589844 306.089844 46.589844 301.164062 L 46.589844 165.980469 C 46.589844 161.0625 50.601562 157.0625 55.519531 157.0625 L 241.71875 157.0625 C 246.636719 157.0625 250.644531 161.0625 250.644531 165.980469 L 250.644531 178.671875 L 259.738281 178.671875 L 259.738281 165.980469 C 259.746094 156.054688 251.671875 147.972656 241.726562 147.972656 L 55.519531 147.972656 C 45.582031 147.972656 37.5 156.054688 37.5 165.980469 L 37.5 301.152344 C 37.5 311.089844 45.582031 319.171875 55.519531 319.171875 L 117.953125 319.171875 L 117.953125 326.933594 L 101.882812 326.933594 C 99.363281 326.933594 97.335938 328.972656 97.335938 331.480469 C 97.335938 333.988281 99.363281 336.027344 101.882812 336.027344 L 184.335938 336.027344 C 179.972656 331.191406 177.238281 324.851562 177.238281 317.84375 Z M 170.210938 326.945312 L 127.046875 326.945312 L 127.046875 319.179688 L 170.210938 319.179688 Z M 170.210938 326.945312 " fill-opacity="1" fill-rule="nonzero"/></g></svg>