<svg xmlns="http://www.w3.org/2000/svg" xmlns:xlink="http://www.w3.org/1999/xlink" width="500" zoomAndPan="magnify" viewBox="0 0 375 374.999991" height="500" preserveAspectRatio="xMidYMid meet" version="1.0"><defs><clipPath id="18f39b1bcc"><path d="M 37.5 143 L 321 143 L 321 342 L 37.5 342 Z M 37.5 143 " clip-rule="nonzero"/></clipPath></defs><path fill="#0984e6" d="M 273.4375 115.394531 L 259.28125 125.539062 C 257.15625 126.957031 256.6875 130.023438 258.101562 132.144531 C 259.046875 133.5625 260.460938 134.035156 261.875 134.035156 C 262.820312 134.035156 263.765625 133.796875 264.472656 133.089844 L 278.628906 122.945312 C 280.75 121.527344 281.222656 118.460938 279.808594 116.339844 C 278.390625 114.449219 275.5625 113.980469 273.4375 115.394531 Z M 273.4375 115.394531 " fill-opacity="1" fill-rule="nonzero"/><g clip-path="url(#18f39b1bcc)"><path fill="#0984e6" d="M 313.546875 209.769531 L 313.546875 167.066406 C 313.546875 154.089844 303.164062 143.472656 290.1875 143.472656 L 60.859375 143.472656 C 47.882812 143.472656 37.5 154.089844 37.5 167.066406 L 37.5 318.066406 C 37.5 331.042969 47.882812 341.660156 60.859375 341.660156 L 290.1875 341.660156 C 303.164062 341.660156 313.546875 331.042969 313.546875 318.066406 L 313.546875 275.359375 C 317.558594 274.417969 320.625 270.640625 320.625 266.160156 L 320.625 218.972656 C 320.625 214.488281 317.558594 210.949219 313.546875 209.769531 Z M 311.1875 218.972656 L 311.1875 266.160156 L 236.394531 266.160156 C 228.609375 266.160156 222.238281 259.789062 222.238281 252.003906 L 222.238281 233.128906 C 222.238281 225.339844 228.609375 218.972656 236.394531 218.972656 Z M 290.1875 332.222656 L 60.859375 332.222656 C 53.070312 332.222656 46.703125 325.851562 46.703125 318.066406 L 46.703125 167.066406 C 46.703125 159.277344 53.070312 152.910156 60.859375 152.910156 L 290.1875 152.910156 C 297.976562 152.910156 304.34375 159.277344 304.34375 167.066406 L 304.34375 209.535156 L 236.394531 209.535156 C 223.417969 209.535156 213.039062 220.152344 213.039062 233.128906 L 213.039062 252.003906 C 213.039062 264.980469 223.417969 275.597656 236.394531 275.597656 L 304.34375 275.597656 L 304.34375 318.066406 C 304.34375 325.851562 297.976562 332.222656 290.1875 332.222656 Z M 290.1875 332.222656 " fill-opacity="1" fill-rule="nonzero"/></g><path fill="#0984e6" d="M 246.304688 242.566406 C 246.304688 242.875 246.273438 243.179688 246.214844 243.484375 C 246.152344 243.789062 246.0625 244.085938 245.945312 244.371094 C 245.828125 244.65625 245.679688 244.929688 245.507812 245.1875 C 245.335938 245.445312 245.140625 245.683594 244.921875 245.902344 C 244.703125 246.121094 244.464844 246.316406 244.207031 246.488281 C 243.949219 246.660156 243.679688 246.804688 243.390625 246.925781 C 243.105469 247.042969 242.808594 247.132812 242.507812 247.191406 C 242.203125 247.253906 241.894531 247.285156 241.585938 247.285156 C 241.277344 247.285156 240.96875 247.253906 240.664062 247.191406 C 240.363281 247.132812 240.066406 247.042969 239.78125 246.925781 C 239.492188 246.804688 239.222656 246.660156 238.964844 246.488281 C 238.707031 246.316406 238.46875 246.121094 238.25 245.902344 C 238.03125 245.683594 237.835938 245.445312 237.664062 245.1875 C 237.492188 244.929688 237.34375 244.65625 237.226562 244.371094 C 237.109375 244.085938 237.019531 243.789062 236.957031 243.484375 C 236.898438 243.179688 236.867188 242.875 236.867188 242.566406 C 236.867188 242.253906 236.898438 241.949219 236.957031 241.644531 C 237.019531 241.339844 237.109375 241.046875 237.226562 240.757812 C 237.34375 240.472656 237.492188 240.199219 237.664062 239.941406 C 237.835938 239.6875 238.03125 239.445312 238.25 239.226562 C 238.46875 239.007812 238.707031 238.8125 238.964844 238.640625 C 239.222656 238.46875 239.492188 238.324219 239.78125 238.207031 C 240.066406 238.085938 240.363281 237.996094 240.664062 237.9375 C 240.96875 237.875 241.277344 237.847656 241.585938 237.847656 C 241.894531 237.847656 242.203125 237.875 242.507812 237.9375 C 242.808594 237.996094 243.105469 238.085938 243.390625 238.207031 C 243.679688 238.324219 243.949219 238.46875 244.207031 238.640625 C 244.464844 238.8125 244.703125 239.007812 244.921875 239.226562 C 245.140625 239.445312 245.335938 239.6875 245.507812 239.941406 C 245.679688 240.199219 245.828125 240.472656 245.945312 240.757812 C 246.0625 241.046875 246.152344 241.339844 246.214844 241.644531 C 246.273438 241.949219 246.304688 242.253906 246.304688 242.566406 Z M 246.304688 242.566406 " fill-opacity="1" fill-rule="nonzero"/><path fill="#0984e6" d="M 203.128906 50.039062 C 203.835938 49.332031 204.78125 49.097656 205.960938 49.097656 C 207.375 49.097656 208.789062 49.804688 209.734375 50.984375 L 213.507812 56.175781 L 104.976562 134.035156 L 121.023438 134.035156 L 238.046875 50.039062 C 238.992188 49.332031 239.933594 49.097656 240.878906 49.097656 C 242.292969 49.097656 243.710938 49.804688 244.652344 50.984375 L 254.328125 64.195312 L 158.300781 134.035156 L 174.34375 134.035156 L 259.988281 71.980469 L 303.402344 131.675781 C 304.109375 132.617188 304.34375 133.796875 304.109375 134.976562 C 304.109375 135.683594 303.636719 136.394531 303.402344 136.863281 C 306.234375 138.042969 309.0625 139.933594 311.421875 141.820312 C 312.367188 140.167969 313.3125 138.28125 313.546875 136.394531 C 314.253906 132.617188 313.3125 128.84375 310.953125 126.011719 L 252.4375 45.558594 C 247.957031 39.1875 238.992188 37.769531 232.855469 42.488281 L 221.296875 50.746094 L 217.519531 45.558594 C 213.039062 39.1875 204.070312 37.769531 197.9375 42.488281 L 69.824219 134.035156 L 85.867188 134.035156 Z M 203.128906 50.039062 " fill-opacity="1" fill-rule="nonzero"/></svg>