<svg xmlns="http://www.w3.org/2000/svg" xmlns:xlink="http://www.w3.org/1999/xlink" width="500" zoomAndPan="magnify" viewBox="0 0 375 374.999991" height="500" preserveAspectRatio="xMidYMid meet" version="1.0"><defs><clipPath id="3584bbd027"><path d="M 57.675781 37.5 L 317.324219 37.5 L 317.324219 337.488281 L 57.675781 337.488281 Z M 57.675781 37.5 " clip-rule="nonzero"/></clipPath></defs><g clip-path="url(#3584bbd027)"><path fill="#0984e6" d="M 297.765625 174.8125 C 291.800781 205.796875 280.453125 233.367188 264.035156 256.761719 C 245.183594 283.613281 219.347656 305.242188 187.160156 321.144531 C 155.285156 305.25 129.671875 283.640625 110.941406 256.8125 C 94.613281 233.398438 83.296875 205.8125 77.316406 174.804688 C 71.902344 146.773438 71.9375 121.136719 72.917969 104.574219 C 73.242188 99.089844 73.6875 94.253906 74.144531 90.195312 C 82.699219 88.707031 94.121094 86.488281 106.878906 83.390625 C 129.332031 77.945312 160.390625 68.664062 187.628906 54.328125 C 214.855469 68.675781 245.847656 77.957031 268.242188 83.410156 C 280.972656 86.507812 292.269531 88.714844 300.765625 90.199219 C 301.234375 94.253906 301.6875 99.101562 302.03125 104.632812 C 303.0625 121.1875 303.164062 146.792969 297.765625 174.8125 Z M 316.746094 103.71875 C 315.992188 91.617188 314.695312 82.445312 313.855469 77.394531 C 306.449219 76.300781 290.835938 73.738281 271.730469 69.085938 C 248.230469 63.367188 214.976562 53.308594 187.628906 37.5 C 160.300781 53.292969 126.964844 63.351562 103.40625 69.066406 C 84.34375 73.691406 68.46875 76.292969 61.003906 77.390625 C 60.1875 82.40625 58.929688 91.5 58.207031 103.699219 C 57.171875 121.105469 57.140625 148.0625 62.839844 177.597656 C 69.214844 210.640625 81.339844 240.136719 98.855469 265.246094 C 120.292969 295.957031 149.980469 320.25 187.132812 337.488281 C 224.609375 320.25 254.53125 295.945312 276.09375 265.226562 C 293.722656 240.125 305.878906 210.640625 312.238281 177.597656 C 317.929688 148.0625 317.828125 121.121094 316.746094 103.71875 " fill-opacity="1" fill-rule="nonzero"/></g></svg>