<svg xmlns="http://www.w3.org/2000/svg" xmlns:xlink="http://www.w3.org/1999/xlink" width="500" zoomAndPan="magnify" viewBox="0 0 375 374.999991" height="500" preserveAspectRatio="xMidYMid meet" version="1.0"><defs><clipPath id="ec78a16232"><path d="M 37.5 37.5 L 337.5 37.5 L 337.5 337.5 L 37.5 337.5 Z M 37.5 37.5 " clip-rule="nonzero"/></clipPath></defs><g clip-path="url(#ec78a16232)"><path fill="#0984e6" d="M 201.847656 102.71875 C 197.933594 101.414062 195.324219 104.023438 194.023438 107.933594 L 167.933594 212.28125 C 166.628906 216.195312 169.238281 218.804688 173.152344 220.109375 C 173.152344 220.109375 174.457031 220.109375 174.457031 220.109375 C 177.066406 220.109375 179.671875 217.5 180.976562 214.890625 L 207.066406 110.542969 C 208.371094 106.628906 205.761719 104.023438 201.847656 102.71875 Z M 152.28125 117.066406 C 149.671875 114.457031 145.761719 115.761719 143.152344 118.371094 L 117.066406 157.5 C 115.761719 160.109375 115.761719 162.71875 117.066406 165.328125 L 143.152344 204.457031 C 144.457031 205.761719 147.066406 207.066406 148.367188 207.066406 C 149.671875 207.066406 150.976562 207.066406 152.28125 205.761719 C 154.890625 203.152344 156.195312 199.238281 153.585938 196.628906 L 130.109375 161.414062 L 153.585938 126.195312 C 156.195312 122.28125 154.890625 118.371094 152.28125 117.066406 Z M 304.890625 37.5 L 70.109375 37.5 C 51.847656 37.5 37.5 51.847656 37.5 70.109375 L 37.5 252.71875 C 37.5 270.976562 51.847656 285.324219 70.109375 285.324219 L 167.933594 285.324219 L 167.933594 298.371094 L 122.28125 298.371094 C 104.023438 298.371094 89.675781 312.71875 89.675781 330.976562 C 89.675781 334.890625 92.28125 337.5 96.195312 337.5 L 278.804688 337.5 C 282.71875 337.5 285.324219 334.890625 285.324219 330.976562 C 285.324219 329.671875 285.324219 329.671875 285.324219 328.371094 C 284.023438 311.414062 269.671875 298.371094 252.71875 298.371094 L 207.066406 298.371094 L 207.066406 285.324219 L 304.890625 285.324219 C 323.152344 285.324219 337.5 270.976562 337.5 252.71875 L 337.5 70.109375 C 337.5 51.847656 323.152344 37.5 304.890625 37.5 Z M 324.457031 233.152344 L 50.542969 233.152344 L 50.542969 70.109375 C 50.542969 59.675781 59.675781 50.542969 70.109375 50.542969 L 304.890625 50.542969 C 315.324219 50.542969 324.457031 59.675781 324.457031 70.109375 Z M 130.109375 123.585938 C 130.109375 119.675781 127.5 117.066406 123.585938 117.066406 C 114.457031 117.066406 109.238281 115.761719 107.933594 113.152344 C 105.324219 110.542969 104.023438 105.328125 104.023438 97.5 C 104.023438 93.585938 101.414062 90.976562 97.5 90.976562 C 93.585938 90.976562 90.976562 93.585938 90.976562 97.5 C 90.976562 106.628906 89.675781 111.847656 87.066406 113.152344 C 84.457031 115.761719 79.238281 117.066406 71.414062 117.066406 C 67.5 117.066406 64.890625 119.675781 64.890625 123.585938 C 64.890625 127.5 67.5 130.109375 71.414062 130.109375 C 80.542969 130.109375 85.761719 131.414062 87.066406 134.023438 C 89.675781 136.628906 90.976562 141.847656 90.976562 149.675781 C 90.976562 153.585938 93.585938 156.195312 97.5 156.195312 C 101.414062 156.195312 104.023438 153.585938 104.023438 149.675781 C 104.023438 140.542969 105.324219 135.324219 107.933594 134.023438 C 110.542969 131.414062 115.761719 130.109375 123.585938 130.109375 C 127.5 130.109375 130.109375 127.5 130.109375 123.585938 Z M 231.847656 118.371094 C 229.238281 115.761719 225.324219 114.457031 222.71875 117.066406 C 220.109375 119.675781 218.804688 123.585938 221.414062 126.195312 L 244.890625 161.414062 L 221.414062 196.632812 C 218.804688 199.238281 220.109375 203.152344 222.71875 205.761719 C 224.023438 207.066406 225.324219 207.066406 226.628906 207.066406 C 229.238281 207.066406 230.542969 205.761719 231.847656 204.457031 L 257.933594 165.328125 C 259.238281 162.71875 259.238281 160.109375 257.933594 157.5 Z M 306.195312 89.675781 C 297.066406 89.675781 291.847656 88.371094 290.542969 85.761719 C 287.933594 83.152344 286.628906 77.933594 286.628906 70.109375 C 286.628906 66.195312 284.023438 63.585938 280.109375 63.585938 C 276.195312 63.585938 273.585938 66.195312 273.585938 70.109375 C 273.585938 79.238281 272.28125 84.457031 269.675781 85.761719 C 267.066406 88.371094 261.847656 89.675781 254.023438 89.675781 C 250.109375 89.675781 247.5 92.28125 247.5 96.195312 C 247.5 100.109375 250.109375 102.71875 254.023438 102.71875 C 263.152344 102.71875 268.371094 104.023438 269.675781 106.628906 C 272.28125 109.238281 273.585938 114.457031 273.585938 122.28125 C 273.585938 126.195312 276.195312 128.804688 280.109375 128.804688 C 284.023438 128.804688 286.628906 126.195312 286.628906 122.28125 C 286.628906 113.152344 287.933594 107.933594 290.542969 106.628906 C 293.152344 104.019531 298.371094 102.71875 306.195312 102.71875 C 310.109375 102.71875 312.71875 100.109375 312.71875 96.195312 C 312.71875 92.28125 310.109375 89.675781 306.195312 89.675781 Z M 306.195312 89.675781 " fill-opacity="1" fill-rule="nonzero"/></g></svg>