<svg xmlns="http://www.w3.org/2000/svg" xmlns:xlink="http://www.w3.org/1999/xlink" width="40" zoomAndPan="magnify" viewBox="0 0 30 30.000001" height="40" preserveAspectRatio="xMidYMid meet" version="1.0"><defs><clipPath id="c9853da651"><path d="M 0.484375 0 L 29.515625 0 L 29.515625 29.03125 L 0.484375 29.03125 Z M 0.484375 0 " clip-rule="nonzero"/></clipPath></defs><g clip-path="url(#c9853da651)"><path fill="#ffffff" d="M 15.335938 2.019531 C 15.121094 1.933594 14.878906 1.933594 14.664062 2.019531 L 3.835938 6.351562 L 8.195312 8.09375 L 19.363281 3.628906 Z M 21.804688 4.605469 L 10.636719 9.074219 L 15 10.816406 L 26.164062 6.351562 Z M 27.703125 7.691406 L 15.90625 12.410156 L 15.90625 26.785156 L 27.703125 22.066406 Z M 14.09375 26.785156 L 14.09375 12.410156 L 2.296875 7.691406 L 2.296875 22.066406 Z M 13.988281 0.335938 C 14.636719 0.0742188 15.363281 0.0742188 16.011719 0.335938 L 28.945312 5.507812 C 29.289062 5.644531 29.515625 5.980469 29.515625 6.351562 L 29.515625 22.066406 C 29.515625 22.808594 29.0625 23.476562 28.375 23.753906 L 15.335938 28.96875 C 15.121094 29.054688 14.878906 29.054688 14.664062 28.96875 L 1.625 23.753906 C 0.9375 23.476562 0.484375 22.808594 0.484375 22.066406 L 0.484375 6.351562 C 0.484375 5.980469 0.710938 5.644531 1.054688 5.507812 Z M 13.988281 0.335938 " fill-opacity="1" fill-rule="nonzero"/></g></svg>