<svg xmlns="http://www.w3.org/2000/svg" xmlns:xlink="http://www.w3.org/1999/xlink" width="500" zoomAndPan="magnify" viewBox="0 0 375 374.999991" height="500" preserveAspectRatio="xMidYMid meet" version="1.0"><defs><clipPath id="69fc9ca2ba"><path d="M 273 188 L 337.5 188 L 337.5 253 L 273 253 Z M 273 188 " clip-rule="nonzero"/></clipPath><clipPath id="0f18f4fbe0"><path d="M 37.5 177 L 124 177 L 124 264 L 37.5 264 Z M 37.5 177 " clip-rule="nonzero"/></clipPath><clipPath id="3b8f72be7d"><path d="M 37.5 295 L 337.5 295 L 337.5 316.847656 L 37.5 316.847656 Z M 37.5 295 " clip-rule="nonzero"/></clipPath><clipPath id="0782f05eae"><path d="M 37.5 124.097656 L 337.5 124.097656 L 337.5 146 L 37.5 146 Z M 37.5 124.097656 " clip-rule="nonzero"/></clipPath></defs><path fill="#ffffff" d="M 230.332031 220.472656 C 230.332031 221.523438 230.28125 222.574219 230.179688 223.621094 C 230.074219 224.667969 229.921875 225.707031 229.714844 226.738281 C 229.511719 227.773438 229.253906 228.792969 228.949219 229.796875 C 228.644531 230.804688 228.289062 231.792969 227.886719 232.765625 C 227.484375 233.738281 227.035156 234.6875 226.539062 235.617188 C 226.042969 236.542969 225.503906 237.445312 224.917969 238.320312 C 224.335938 239.195312 223.707031 240.039062 223.042969 240.851562 C 222.375 241.667969 221.667969 242.445312 220.925781 243.1875 C 220.179688 243.933594 219.402344 244.636719 218.589844 245.304688 C 217.773438 245.972656 216.929688 246.597656 216.054688 247.183594 C 215.179688 247.769531 214.28125 248.308594 213.351562 248.804688 C 212.425781 249.300781 211.472656 249.75 210.503906 250.152344 C 209.53125 250.554688 208.539062 250.910156 207.535156 251.214844 C 206.527344 251.519531 205.507812 251.773438 204.476562 251.980469 C 203.445312 252.1875 202.402344 252.339844 201.355469 252.441406 C 200.308594 252.546875 199.261719 252.597656 198.207031 252.597656 C 197.15625 252.597656 196.105469 252.546875 195.058594 252.441406 C 194.011719 252.339844 192.972656 252.1875 191.941406 251.980469 C 190.910156 251.773438 189.890625 251.519531 188.882812 251.214844 C 187.875 250.910156 186.886719 250.554688 185.914062 250.152344 C 184.941406 249.75 183.992188 249.300781 183.066406 248.804688 C 182.136719 248.308594 181.234375 247.769531 180.359375 247.183594 C 179.484375 246.597656 178.640625 245.972656 177.828125 245.304688 C 177.015625 244.636719 176.238281 243.933594 175.492188 243.1875 C 174.75 242.445312 174.042969 241.667969 173.375 240.851562 C 172.707031 240.039062 172.082031 239.195312 171.496094 238.320312 C 170.914062 237.445312 170.371094 236.542969 169.875 235.617188 C 169.378906 234.6875 168.929688 233.738281 168.527344 232.765625 C 168.125 231.792969 167.773438 230.804688 167.464844 229.796875 C 167.160156 228.792969 166.90625 227.773438 166.699219 226.738281 C 166.496094 225.707031 166.339844 224.667969 166.238281 223.621094 C 166.136719 222.574219 166.082031 221.523438 166.082031 220.472656 C 166.082031 219.421875 166.136719 218.371094 166.238281 217.324219 C 166.339844 216.277344 166.496094 215.238281 166.699219 214.207031 C 166.90625 213.171875 167.160156 212.15625 167.464844 211.148438 C 167.773438 210.140625 168.125 209.152344 168.527344 208.179688 C 168.929688 207.207031 169.378906 206.257812 169.875 205.328125 C 170.371094 204.402344 170.914062 203.5 171.496094 202.625 C 172.082031 201.75 172.707031 200.90625 173.375 200.09375 C 174.042969 199.28125 174.75 198.5 175.492188 197.757812 C 176.238281 197.011719 177.015625 196.308594 177.828125 195.640625 C 178.640625 194.972656 179.484375 194.347656 180.359375 193.761719 C 181.234375 193.175781 182.136719 192.636719 183.066406 192.140625 C 183.992188 191.644531 184.941406 191.195312 185.914062 190.792969 C 186.886719 190.390625 187.875 190.035156 188.882812 189.730469 C 189.890625 189.425781 190.910156 189.171875 191.941406 188.964844 C 192.972656 188.761719 194.011719 188.605469 195.058594 188.503906 C 196.105469 188.398438 197.15625 188.347656 198.207031 188.347656 C 199.261719 188.347656 200.308594 188.398438 201.355469 188.503906 C 202.402344 188.605469 203.445312 188.761719 204.476562 188.964844 C 205.507812 189.171875 206.527344 189.425781 207.535156 189.730469 C 208.539062 190.035156 209.53125 190.390625 210.503906 190.792969 C 211.472656 191.195312 212.425781 191.644531 213.351562 192.140625 C 214.28125 192.636719 215.179688 193.175781 216.054688 193.761719 C 216.929688 194.347656 217.773438 194.972656 218.589844 195.640625 C 219.402344 196.308594 220.179688 197.011719 220.925781 197.757812 C 221.667969 198.5 222.375 199.28125 223.042969 200.09375 C 223.707031 200.90625 224.335938 201.75 224.917969 202.625 C 225.503906 203.5 226.042969 204.402344 226.539062 205.328125 C 227.035156 206.257812 227.484375 207.207031 227.886719 208.179688 C 228.289062 209.152344 228.644531 210.140625 228.949219 211.148438 C 229.253906 212.15625 229.511719 213.171875 229.714844 214.207031 C 229.921875 215.238281 230.074219 216.277344 230.179688 217.324219 C 230.28125 218.371094 230.332031 219.421875 230.332031 220.472656 Z M 230.332031 220.472656 " fill-opacity="1" fill-rule="nonzero"/><g clip-path="url(#69fc9ca2ba)"><path fill="#ffffff" d="M 337.417969 220.472656 C 337.417969 221.523438 337.363281 222.574219 337.261719 223.621094 C 337.160156 224.667969 337.003906 225.707031 336.800781 226.738281 C 336.59375 227.773438 336.339844 228.792969 336.035156 229.796875 C 335.726562 230.804688 335.375 231.792969 334.972656 232.765625 C 334.570312 233.738281 334.121094 234.6875 333.625 235.617188 C 333.128906 236.542969 332.585938 237.445312 332.003906 238.320312 C 331.417969 239.195312 330.792969 240.039062 330.125 240.851562 C 329.457031 241.667969 328.75 242.445312 328.007812 243.1875 C 327.261719 243.933594 326.484375 244.636719 325.671875 245.304688 C 324.859375 245.972656 324.015625 246.597656 323.140625 247.183594 C 322.265625 247.769531 321.363281 248.308594 320.433594 248.804688 C 319.507812 249.300781 318.558594 249.75 317.585938 250.152344 C 316.613281 250.554688 315.625 250.910156 314.617188 251.214844 C 313.609375 251.519531 312.589844 251.773438 311.558594 251.980469 C 310.527344 252.1875 309.488281 252.339844 308.441406 252.441406 C 307.394531 252.546875 306.34375 252.597656 305.292969 252.597656 C 304.238281 252.597656 303.191406 252.546875 302.144531 252.441406 C 301.097656 252.339844 300.054688 252.1875 299.023438 251.980469 C 297.992188 251.773438 296.972656 251.519531 295.964844 251.214844 C 294.960938 250.910156 293.96875 250.554688 292.996094 250.152344 C 292.027344 249.75 291.074219 249.300781 290.148438 248.804688 C 289.21875 248.308594 288.320312 247.769531 287.445312 247.183594 C 286.570312 246.597656 285.726562 245.972656 284.910156 245.304688 C 284.097656 244.636719 283.320312 243.933594 282.574219 243.1875 C 281.832031 242.445312 281.125 241.667969 280.457031 240.851562 C 279.792969 240.039062 279.164062 239.195312 278.582031 238.320312 C 277.996094 237.445312 277.457031 236.542969 276.960938 235.617188 C 276.464844 234.6875 276.015625 233.738281 275.613281 232.765625 C 275.210938 231.792969 274.855469 230.804688 274.550781 229.796875 C 274.246094 228.792969 273.988281 227.773438 273.785156 226.738281 C 273.578125 225.707031 273.425781 224.667969 273.320312 223.621094 C 273.21875 222.574219 273.167969 221.523438 273.167969 220.472656 C 273.167969 219.421875 273.21875 218.371094 273.320312 217.324219 C 273.425781 216.277344 273.578125 215.238281 273.785156 214.207031 C 273.988281 213.171875 274.246094 212.15625 274.550781 211.148438 C 274.855469 210.140625 275.210938 209.152344 275.613281 208.179688 C 276.015625 207.207031 276.464844 206.257812 276.960938 205.328125 C 277.457031 204.402344 277.996094 203.5 278.582031 202.625 C 279.164062 201.75 279.792969 200.90625 280.457031 200.09375 C 281.125 199.28125 281.832031 198.5 282.574219 197.757812 C 283.320312 197.011719 284.097656 196.308594 284.910156 195.640625 C 285.726562 194.972656 286.570312 194.347656 287.445312 193.761719 C 288.320312 193.175781 289.21875 192.636719 290.148438 192.140625 C 291.074219 191.644531 292.027344 191.195312 292.996094 190.792969 C 293.96875 190.390625 294.960938 190.035156 295.964844 189.730469 C 296.972656 189.425781 297.992188 189.171875 299.023438 188.964844 C 300.054688 188.761719 301.097656 188.605469 302.144531 188.503906 C 303.191406 188.398438 304.238281 188.347656 305.292969 188.347656 C 306.34375 188.347656 307.394531 188.398438 308.441406 188.503906 C 309.488281 188.605469 310.527344 188.761719 311.558594 188.964844 C 312.589844 189.171875 313.609375 189.425781 314.617188 189.730469 C 315.625 190.035156 316.613281 190.390625 317.585938 190.792969 C 318.558594 191.195312 319.507812 191.644531 320.433594 192.140625 C 321.363281 192.636719 322.265625 193.175781 323.140625 193.761719 C 324.015625 194.347656 324.859375 194.972656 325.671875 195.640625 C 326.484375 196.308594 327.261719 197.011719 328.007812 197.757812 C 328.75 198.5 329.457031 199.28125 330.125 200.09375 C 330.792969 200.90625 331.417969 201.75 332.003906 202.625 C 332.585938 203.5 333.128906 204.402344 333.625 205.328125 C 334.121094 206.257812 334.570312 207.207031 334.972656 208.179688 C 335.375 209.152344 335.726562 210.140625 336.035156 211.148438 C 336.339844 212.15625 336.59375 213.171875 336.800781 214.207031 C 337.003906 215.238281 337.160156 216.277344 337.261719 217.324219 C 337.363281 218.371094 337.417969 219.421875 337.417969 220.472656 Z M 337.417969 220.472656 " fill-opacity="1" fill-rule="nonzero"/></g><g clip-path="url(#0f18f4fbe0)"><path fill="#ffffff" d="M 123.25 220.472656 C 123.25 221.875 123.179688 223.273438 123.042969 224.671875 C 122.90625 226.066406 122.699219 227.453125 122.425781 228.828125 C 122.152344 230.207031 121.8125 231.5625 121.40625 232.90625 C 121 234.25 120.527344 235.570312 119.988281 236.863281 C 119.453125 238.160156 118.855469 239.425781 118.191406 240.664062 C 117.53125 241.902344 116.8125 243.101562 116.03125 244.269531 C 115.25 245.4375 114.417969 246.5625 113.527344 247.644531 C 112.636719 248.730469 111.695312 249.769531 110.703125 250.761719 C 109.710938 251.753906 108.675781 252.695312 107.589844 253.582031 C 106.503906 254.472656 105.378906 255.308594 104.214844 256.085938 C 103.046875 256.867188 101.84375 257.585938 100.609375 258.25 C 99.371094 258.910156 98.105469 259.507812 96.808594 260.046875 C 95.511719 260.582031 94.191406 261.054688 92.851562 261.460938 C 91.507812 261.867188 90.148438 262.210938 88.773438 262.484375 C 87.398438 262.757812 86.011719 262.960938 84.613281 263.101562 C 83.21875 263.238281 81.820312 263.304688 80.417969 263.304688 C 79.015625 263.304688 77.613281 263.238281 76.21875 263.101562 C 74.820312 262.960938 73.4375 262.757812 72.058594 262.484375 C 70.683594 262.210938 69.324219 261.867188 67.984375 261.460938 C 66.640625 261.054688 65.320312 260.582031 64.023438 260.046875 C 62.730469 259.507812 61.460938 258.910156 60.226562 258.25 C 58.988281 257.585938 57.785156 256.867188 56.621094 256.085938 C 55.453125 255.308594 54.328125 254.472656 53.242188 253.582031 C 52.160156 252.695312 51.121094 251.753906 50.128906 250.761719 C 49.136719 249.769531 48.195312 248.730469 47.304688 247.644531 C 46.417969 246.5625 45.582031 245.4375 44.800781 244.269531 C 44.023438 243.101562 43.300781 241.902344 42.640625 240.664062 C 41.980469 239.425781 41.378906 238.160156 40.84375 236.863281 C 40.308594 235.570312 39.835938 234.25 39.425781 232.90625 C 39.019531 231.5625 38.679688 230.207031 38.40625 228.828125 C 38.132812 227.453125 37.925781 226.066406 37.789062 224.671875 C 37.652344 223.273438 37.582031 221.875 37.582031 220.472656 C 37.582031 219.070312 37.652344 217.671875 37.789062 216.273438 C 37.925781 214.878906 38.132812 213.492188 38.40625 212.117188 C 38.679688 210.742188 39.019531 209.382812 39.425781 208.039062 C 39.835938 206.695312 40.308594 205.378906 40.84375 204.082031 C 41.378906 202.785156 41.980469 201.519531 42.640625 200.28125 C 43.300781 199.042969 44.023438 197.84375 44.800781 196.675781 C 45.582031 195.507812 46.417969 194.382812 47.304688 193.300781 C 48.195312 192.214844 49.136719 191.175781 50.128906 190.183594 C 51.121094 189.191406 52.160156 188.253906 53.242188 187.363281 C 54.328125 186.472656 55.453125 185.636719 56.621094 184.859375 C 57.785156 184.078125 58.988281 183.359375 60.226562 182.699219 C 61.460938 182.035156 62.730469 181.4375 64.023438 180.898438 C 65.320312 180.363281 66.640625 179.890625 67.984375 179.484375 C 69.324219 179.078125 70.683594 178.734375 72.058594 178.460938 C 73.4375 178.1875 74.820312 177.984375 76.21875 177.847656 C 77.613281 177.707031 79.015625 177.640625 80.417969 177.640625 C 81.820312 177.640625 83.21875 177.707031 84.613281 177.847656 C 86.011719 177.984375 87.398438 178.1875 88.773438 178.460938 C 90.148438 178.734375 91.507812 179.078125 92.851562 179.484375 C 94.191406 179.890625 95.511719 180.363281 96.808594 180.898438 C 98.105469 181.4375 99.371094 182.035156 100.609375 182.695312 C 101.84375 183.359375 103.046875 184.078125 104.214844 184.859375 C 105.378906 185.636719 106.503906 186.472656 107.589844 187.363281 C 108.675781 188.253906 109.710938 189.191406 110.703125 190.183594 C 111.695312 191.175781 112.636719 192.214844 113.527344 193.300781 C 114.417969 194.382812 115.25 195.507812 116.03125 196.675781 C 116.8125 197.84375 117.53125 199.042969 118.191406 200.28125 C 118.855469 201.519531 119.453125 202.785156 119.988281 204.082031 C 120.527344 205.378906 121 206.695312 121.40625 208.039062 C 121.8125 209.382812 122.152344 210.742188 122.425781 212.117188 C 122.699219 213.492188 122.90625 214.878906 123.042969 216.273438 C 123.179688 217.671875 123.25 219.070312 123.25 220.472656 Z M 123.25 220.472656 " fill-opacity="1" fill-rule="nonzero"/></g><g clip-path="url(#3b8f72be7d)"><path fill="#ffffff" d="M 326.707031 316.847656 L 48.292969 316.847656 C 41.867188 316.847656 37.582031 312.566406 37.582031 306.140625 C 37.582031 299.714844 41.867188 295.429688 48.292969 295.429688 L 326.707031 295.429688 C 333.132812 295.429688 337.417969 299.714844 337.417969 306.140625 C 337.417969 312.566406 333.132812 316.847656 326.707031 316.847656 Z M 326.707031 316.847656 " fill-opacity="1" fill-rule="nonzero"/></g><g clip-path="url(#0782f05eae)"><path fill="#ffffff" d="M 326.707031 145.515625 L 48.292969 145.515625 C 41.867188 145.515625 37.582031 141.230469 37.582031 134.804688 C 37.582031 128.382812 41.867188 124.097656 48.292969 124.097656 L 326.707031 124.097656 C 333.132812 124.097656 337.417969 128.382812 337.417969 134.804688 C 337.417969 141.230469 333.132812 145.515625 326.707031 145.515625 Z M 326.707031 145.515625 " fill-opacity="1" fill-rule="nonzero"/></g></svg>