<svg xmlns="http://www.w3.org/2000/svg" xmlns:xlink="http://www.w3.org/1999/xlink" width="500" zoomAndPan="magnify" viewBox="0 0 375 374.999991" height="500" preserveAspectRatio="xMidYMid meet" version="1.0"><defs><clipPath id="1d90703025"><path d="M 101.121094 177.835938 L 178.496094 177.835938 L 178.496094 284.148438 L 101.121094 284.148438 Z M 101.121094 177.835938 " clip-rule="nonzero"/></clipPath><clipPath id="43d781a667"><path d="M 196.59375 177.835938 L 273.882812 177.835938 L 273.882812 284.148438 L 196.59375 284.148438 Z M 196.59375 177.835938 " clip-rule="nonzero"/></clipPath><clipPath id="e66f977f31"><path d="M 91.042969 134.535156 L 283.785156 134.535156 L 283.785156 327.277344 L 91.042969 327.277344 Z M 91.042969 134.535156 " clip-rule="nonzero"/></clipPath></defs><g clip-path="url(#1d90703025)"><path fill="#ffffff" d="M 150.996094 248.664062 L 149.863281 252.484375 C 148.632812 256.636719 147.214844 260.964844 145.839844 265.152344 C 144.472656 269.320312 143.183594 273.257812 142.121094 276.875 C 141.71875 278.238281 142.457031 278.890625 142.929688 279.160156 C 143.683594 279.585938 144.941406 279.667969 146.007812 278.503906 C 158.609375 264.734375 173.628906 242.785156 173.628906 216.4375 C 173.628906 197.738281 158.417969 182.527344 139.71875 182.527344 C 121.023438 182.527344 105.8125 197.738281 105.8125 216.4375 C 105.8125 235.132812 121.023438 250.34375 139.71875 250.34375 C 142.183594 250.34375 144.667969 250.070312 147.105469 249.527344 Z M 144.042969 284.152344 C 142.878906 284.152344 141.710938 283.855469 140.628906 283.246094 C 137.925781 281.722656 136.714844 278.628906 137.621094 275.550781 C 138.703125 271.863281 140.007812 267.894531 141.382812 263.691406 C 142.351562 260.746094 143.339844 257.726562 144.265625 254.761719 C 142.75 254.945312 141.230469 255.035156 139.71875 255.035156 C 118.4375 255.035156 101.121094 237.71875 101.121094 216.4375 C 101.121094 195.152344 118.4375 177.835938 139.71875 177.835938 C 161.003906 177.835938 178.316406 195.152344 178.316406 216.4375 C 178.316406 244.292969 162.628906 267.285156 149.46875 281.667969 C 147.976562 283.296875 146.019531 284.152344 144.042969 284.152344 " fill-opacity="1" fill-rule="nonzero"/></g><g clip-path="url(#43d781a667)"><path fill="#ffffff" d="M 246.558594 248.664062 L 245.429688 252.484375 C 244.199219 256.636719 242.777344 260.964844 241.40625 265.148438 C 240.039062 269.316406 238.75 273.253906 237.683594 276.875 C 237.28125 278.238281 238.019531 278.890625 238.496094 279.160156 C 239.25 279.585938 240.507812 279.667969 241.570312 278.503906 C 254.171875 264.734375 269.191406 242.785156 269.191406 216.4375 C 269.191406 197.738281 253.980469 182.527344 235.285156 182.527344 C 216.585938 182.527344 201.375 197.738281 201.375 216.4375 C 201.375 235.132812 216.585938 250.34375 235.285156 250.34375 C 237.746094 250.34375 240.230469 250.070312 242.671875 249.527344 Z M 239.609375 284.152344 C 238.445312 284.152344 237.273438 283.855469 236.191406 283.246094 C 233.488281 281.722656 232.28125 278.628906 233.183594 275.550781 C 234.269531 271.863281 235.570312 267.890625 236.949219 263.6875 C 237.914062 260.742188 238.902344 257.726562 239.832031 254.761719 C 238.316406 254.945312 236.796875 255.035156 235.285156 255.035156 C 214 255.035156 196.683594 237.71875 196.683594 216.4375 C 196.683594 195.152344 214 177.835938 235.285156 177.835938 C 256.566406 177.835938 273.882812 195.152344 273.882812 216.4375 C 273.882812 244.292969 258.191406 267.285156 245.03125 281.667969 C 243.542969 283.296875 241.582031 284.152344 239.609375 284.152344 " fill-opacity="1" fill-rule="nonzero"/></g><g clip-path="url(#e66f977f31)"><path fill="#ffffff" d="M 187.496094 327.441406 C 134.328125 327.441406 91.042969 284.15625 91.042969 230.988281 C 91.042969 177.820312 134.328125 134.535156 187.496094 134.535156 C 240.664062 134.535156 283.949219 177.820312 283.949219 230.988281 C 283.949219 284.15625 240.664062 327.441406 187.496094 327.441406 Z M 187.496094 135.960938 C 135.089844 135.960938 92.46875 178.582031 92.46875 230.988281 C 92.46875 283.394531 135.089844 326.015625 187.496094 326.015625 C 239.902344 326.015625 282.523438 283.394531 282.523438 230.988281 C 282.523438 178.582031 239.902344 135.960938 187.496094 135.960938 Z M 187.496094 135.960938 " fill-opacity="1" fill-rule="nonzero"/></g></svg>